<svg xmlns="http://www.w3.org/2000/svg" width="19" height="19" fill="none"><path fill="#E5E5E5" d="M0 0h19v19H0z"/><g clip-path="url(#a)"><path fill="#F2F2F2" d="M-915-23H365v3557.86H-915z"/><g filter="url(#b)"><path fill="#fff" d="M-875-23H325v3557.86H-875z"/><path fill="#fff" d="M-875-23H325v64H-875z"/><path fill="#000" d="m18.5 17-3.7-3.67c1-1.3 1.7-2.98 1.7-4.87A8 8 0 0 0 8.5.5C4.1.5.5 4.18.5 8.56a8 8 0 0 0 12.9 6.26l3.7 3.68 1.4-1.5Zm-10-2.48a6 6 0 0 1-6-5.96 6 6 0 0 1 12 0 6 6 0 0 1-6 5.96Z"/></g></g><defs><clipPath id="a"><path fill="#fff" d="M-915-23H365v3557.86H-915z"/></clipPath><filter id="b" width="1230" height="3587.86" x="-890" y="-38" color-interpolation-filters="sRGB" filterUnits="userSpaceOnUse"><feFlood flood-opacity="0" result="BackgroundImageFix"/><feColorMatrix in="SourceAlpha" result="hardAlpha" values="0 0 0 0 0 0 0 0 0 0 0 0 0 0 0 0 0 0 127 0"/><feOffset/><feGaussianBlur stdDeviation="7.5"/><feColorMatrix values="0 0 0 0 0 0 0 0 0 0 0 0 0 0 0 0 0 0 0.2 0"/><feBlend in2="BackgroundImageFix" result="effect1_dropShadow_0_1"/><feBlend in="SourceGraphic" in2="effect1_dropShadow_0_1" result="shape"/></filter></defs></svg>